<?xml version="1.0" encoding="utf-8"?>
<!-- Generator: Adobe Illustrator 23.0.1, SVG Export Plug-In . SVG Version: 6.00 Build 0)  -->
<svg version="1.1" id="Layer_1" xmlns="http://www.w3.org/2000/svg" xmlns:xlink="http://www.w3.org/1999/xlink" x="0px" y="0px"
	 width="35px" height="35px" viewBox="0 0 35 35" style="enable-background:new 0 0 35 35;" xml:space="preserve">
<g>
	<g>
		<path d="M9.6,10.8c-0.6,0-1.1,0.5-1.1,1.1v15.6c0,0.6,0.5,1.1,1.1,1.1h10.9c0.6,0,1.1-0.5,1.1-1.1V14.1l-3.1-3.4L9.6,10.8
			L9.6,10.8z M20.7,27.4c0,0.1-0.1,0.2-0.2,0.2H9.6c-0.1,0-0.2-0.1-0.2-0.2V11.9c0-0.1,0.1-0.2,0.2-0.2h8.3v2.6
			c0,0.3,0.2,0.5,0.5,0.5h2.4v12.6H20.7z M18.8,12.4l1.4,1.5h-1.4V12.4z M23.4,5.4h-8.9c-0.6,0-1.1,0.5-1.1,1.1v3.2h0.9V6.5
			c0-0.1,0.1-0.2,0.2-0.2h8.3V9c0,0.3,0.2,0.5,0.5,0.5h2.4v12.6c0,0.1-0.1,0.2-0.2,0.2h-2.6v0.9h2.6c0.6,0,1.1-0.5,1.1-1.1V8.8
			L23.4,5.4z M23.7,8.5V7.1L25,8.5H23.7z"/>
	</g>
</g>
</svg>
