<?xml version="1.0" encoding="utf-8"?>
<!-- Generator: Adobe Illustrator 24.2.1, SVG Export Plug-In . SVG Version: 6.00 Build 0)  -->
<svg version="1.1" id="Layer_1" xmlns="http://www.w3.org/2000/svg" xmlns:xlink="http://www.w3.org/1999/xlink" x="0px" y="0px"
	 width="35px" height="35px" viewBox="0 0 35 35" style="enable-background:new 0 0 35 35;" xml:space="preserve">
<style type="text/css">
	.st0{fill:#FFFFFF;}
</style>
<g>
	<path d="M26,14v15H9V14H26 M27,13H8v17h19V13L27,13z"/>
</g>
<path d="M11.5,15L11.5,15c-0.3,0-0.5-0.2-0.5-0.5v-3c0-0.3,0.2-0.5,0.5-0.5l0,0c0.3,0,0.5,0.2,0.5,0.5v3C12,14.8,11.8,15,11.5,15z"
	/>
<path d="M23.5,15L23.5,15c-0.3,0-0.5-0.2-0.5-0.5v-3c0-0.3,0.2-0.5,0.5-0.5l0,0c0.3,0,0.5,0.2,0.5,0.5v3C24,14.8,23.8,15,23.5,15z"
	/>
<g>
	<rect x="11" y="17" width="1" height="1"/>
</g>
<g>
	<rect x="11" y="20" width="1" height="1"/>
</g>
<g>
	<rect x="15" y="20" width="1" height="1"/>
</g>
<g>
	<rect x="11" y="23" width="1" height="1"/>
</g>
<g>
	<rect x="11" y="26" width="1" height="1"/>
</g>
<g>
	<path d="M16,23v1h-1v-1H16 M17,22h-3v3h3V22L17,22z"/>
</g>
<g>
	<rect x="15" y="26" width="1" height="1"/>
</g>
<g>
	<rect x="19" y="23" width="1" height="1"/>
</g>
<g>
	<rect x="19" y="20" width="1" height="1"/>
</g>
<g>
	<rect x="15" y="17" width="1" height="1"/>
</g>
<g>
	<rect x="19" y="17" width="1" height="1"/>
</g>
<g>
	<rect x="19" y="26" width="1" height="1"/>
</g>
<g>
	<rect x="23" y="17" width="1" height="1"/>
</g>
<g>
	<rect x="23" y="20" width="1" height="1"/>
</g>
<g>
	<rect x="23" y="23" width="1" height="1"/>
</g>
<g>
	<path class="st0" d="M16,6.3v12.6v1h1h1h1v-1V7.8h6.3l-0.4,0.4c-0.3,0.3-0.4,0.7-0.4,1.1c0,0.4,0.2,0.8,0.4,1.1
		c0.3,0.3,0.7,0.4,1.1,0.4c0.4,0,0.8-0.2,1.1-0.4l2.8-2.8L30,7.3c0.1-0.1,0.2-0.3,0.3-0.5c0.1-0.2,0.1-0.4,0.1-0.6
		c0-0.4-0.2-0.8-0.4-1.1l-2.9-2.9C26.8,2,26.4,1.8,26,1.8c-0.4,0-0.8,0.2-1.1,0.4c-0.3,0.3-0.4,0.7-0.4,1.1c0,0.4,0.2,0.8,0.4,1.1
		l0.4,0.4h-7.9C16.7,4.8,16,5.4,16,6.3L16,6.3z"/>
	<g>
		<path d="M25.5,3.3c0,0.1,0,0.3,0.1,0.4l2.1,2.1H17.5C17.2,5.8,17,6,17,6.3v12.6h1V6.8h9.7l-2.1,2.1c-0.1,0.1-0.1,0.2-0.1,0.4
			s0,0.3,0.1,0.4c0.2,0.2,0.5,0.2,0.7,0l2.8-2.8l0.1-0.1c0.1-0.1,0.1-0.1,0.1-0.2c0-0.1,0.1-0.1,0.1-0.2c0-0.1,0-0.3-0.1-0.4
			l-2.9-2.9c-0.2-0.2-0.5-0.2-0.7,0C25.6,3,25.5,3.2,25.5,3.3z"/>
	</g>
</g>
</svg>
