<?xml version="1.0" encoding="utf-8"?>
<!-- Generator: Adobe Illustrator 22.0.1, SVG Export Plug-In . SVG Version: 6.00 Build 0)  -->
<svg version="1.1" id="Layer_1" xmlns="http://www.w3.org/2000/svg" xmlns:xlink="http://www.w3.org/1999/xlink" x="0px" y="0px"
	 viewBox="0 0 35 35" style="enable-background:new 0 0 35 35;" xml:space="preserve">
<path d="M20,7L20,7h-1l0,0h-9v21h15V12L20,7z M23.6,12H20V8.4L23.6,12z M24,27H11V8h8v5h5V27z"/>
<path d="M30.2,11.3c-0.2-0.2-0.5-0.2-0.7,0L17.7,23.1l-2.5-4.9c-0.2-0.5-0.8-0.7-1.3-0.4c-0.5,0.2-0.7,0.8-0.4,1.3l3.3,6.4l0,0l0,0
	L30.3,12C30.3,11.9,30.3,11.5,30.2,11.3z"/>
</svg>
