<?xml version="1.0" encoding="utf-8"?>
<!-- Generator: Adobe Illustrator 22.0.1, SVG Export Plug-In . SVG Version: 6.00 Build 0)  -->
<svg version="1.1" id="Layer_1" xmlns="http://www.w3.org/2000/svg" xmlns:xlink="http://www.w3.org/1999/xlink" x="0px" y="0px"
	 viewBox="0 0 35 35" style="enable-background:new 0 0 35 35;" xml:space="preserve">
<path d="M22.6,17.9h-9.8c-0.2,0-0.4-0.2-0.4-0.5s0.2-0.5,0.4-0.5h9.7c0.2,0,0.4,0.2,0.4,0.5S22.7,17.9,22.6,17.9z"/>
<path d="M11.6,26.3c-0.3,0-0.5-0.3-0.4-0.6l2-16.9c0-0.3,0.3-0.5,0.6-0.4c0.3,0,0.5,0.3,0.4,0.6l-2,16.9
	C12.1,26.1,11.8,26.3,11.6,26.3z"/>
<path d="M23.2,25.9L21.1,9c0-0.3,0.2-0.5,0.4-0.6c0.3,0,0.5,0.2,0.6,0.4l2,16.9c0,0.3-0.2,0.5-0.4,0.6
	C23.5,26.3,23.2,26.1,23.2,25.9z"/>
<path d="M23.3,22.9H12.1c-0.2,0-0.4-0.2-0.4-0.5s0.2-0.5,0.4-0.5h11.2c0.2,0,0.4,0.2,0.4,0.5S23.6,22.9,23.3,22.9z"/>
<path d="M22,12.9h-8.7c-0.2,0-0.3-0.2-0.3-0.5s0.1-0.5,0.3-0.5H22c0.2,0,0.3,0.2,0.3,0.5S22.1,12.9,22,12.9z"/>
</svg>
