<?xml version="1.0" encoding="utf-8"?>
<!-- Generator: Adobe Illustrator 22.1.0, SVG Export Plug-In . SVG Version: 6.00 Build 0)  -->
<svg version="1.1" id="Layer_1" xmlns="http://www.w3.org/2000/svg" xmlns:xlink="http://www.w3.org/1999/xlink" x="0px" y="0px"
	 viewBox="0 0 35 35" style="enable-background:new 0 0 35 35;" xml:space="preserve">
<path d="M17.4,28.8L17,28.3C16.7,28,9.9,19.7,9.9,14c0-4.1,3.4-7.5,7.5-7.5s7.5,3.4,7.5,7.5c0,5.7-6.8,14-7.1,14.3L17.4,28.8z
	 M17.4,7.5c-3.6,0-6.5,2.9-6.5,6.5c0,4.6,5.1,11.4,6.5,13.2c1.4-1.8,6.5-8.6,6.5-13.2C23.9,10.4,21,7.5,17.4,7.5z"/>
<g>
	<path d="M20,19h-0.8l-1.4-4.8c-0.1-0.2-0.1-0.5-0.2-0.8s-0.1-0.5-0.1-0.6c-0.1,0.4-0.2,0.9-0.3,1.4L15.7,19h-0.8l-1.9-7.1h0.9
		l1.1,4.4c0.2,0.6,0.3,1.2,0.3,1.7c0.1-0.6,0.2-1.2,0.4-1.7l1.3-4.3h0.9l1.3,4.4c0.2,0.5,0.3,1.1,0.4,1.7c0.1-0.5,0.2-1,0.4-1.7
		l1.1-4.4h0.9L20,19z"/>
</g>
</svg>
