<?xml version="1.0" encoding="utf-8"?>
<!-- Generator: Adobe Illustrator 24.2.3, SVG Export Plug-In . SVG Version: 6.00 Build 0)  -->
<svg version="1.1" id="Layer_1" xmlns="http://www.w3.org/2000/svg" xmlns:xlink="http://www.w3.org/1999/xlink" x="0px" y="0px"
	 width="35px" height="35px" viewBox="0 0 35 35" style="enable-background:new 0 0 35 35;" xml:space="preserve">
<g>
	<path d="M27.5,27.5h-20v-20h20V27.5z M8.5,26.5h18v-18h-18V26.5z"/>
</g>
<path d="M22.3,12c-0.1-0.1-0.2-0.2-0.3-0.2h-0.3c-0.2,0-0.4,0.1-0.5,0.3l-3.8,9.1l-3.8-9c-0.1-0.2-0.3-0.4-0.5-0.4h-0.3
	c-0.1,0-0.2,0.1-0.3,0.2c-0.1,0.1-0.1,0.2,0,0.3L17,22.9c0.1,0.1,0.2,0.2,0.3,0.2h0.4c0.1,0,0.3-0.1,0.3-0.2l4.4-10.5
	C22.4,12.3,22.4,12.1,22.3,12z"/>
</svg>
