<?xml version="1.0" encoding="utf-8"?>
<!-- Generator: Adobe Illustrator 24.2.1, SVG Export Plug-In . SVG Version: 6.00 Build 0)  -->
<svg version="1.1" id="Layer_1" xmlns="http://www.w3.org/2000/svg" xmlns:xlink="http://www.w3.org/1999/xlink" x="0px" y="0px"
	 width="35px" height="35px" viewBox="0 0 35 35" style="enable-background:new 0 0 35 35;" xml:space="preserve">
<style type="text/css">
	.st0{fill:#FFFFFF;}
</style>
<g>
	<path d="M26,14v15H9V14H26 M27,13H8v17h19V13L27,13z"/>
</g>
<path d="M11.5,15L11.5,15c-0.3,0-0.5-0.2-0.5-0.5v-3c0-0.3,0.2-0.5,0.5-0.5l0,0c0.3,0,0.5,0.2,0.5,0.5v3C12,14.8,11.8,15,11.5,15z"
	/>
<path d="M23.5,15L23.5,15c-0.3,0-0.5-0.2-0.5-0.5v-3c0-0.3,0.2-0.5,0.5-0.5l0,0c0.3,0,0.5,0.2,0.5,0.5v3C24,14.8,23.8,15,23.5,15z"
	/>
<g>
	<rect x="11" y="17" width="1" height="1"/>
</g>
<g>
	<rect x="11" y="20" width="1" height="1"/>
</g>
<g>
	<rect x="15" y="20" width="1" height="1"/>
</g>
<g>
	<rect x="11" y="23" width="1" height="1"/>
</g>
<g>
	<rect x="11" y="26" width="1" height="1"/>
</g>
<g>
	<path d="M16,23v1h-1v-1H16 M17,22h-3v3h3V22L17,22z"/>
</g>
<g>
	<rect x="15" y="26" width="1" height="1"/>
</g>
<g>
	<rect x="19" y="23" width="1" height="1"/>
</g>
<g>
	<rect x="19" y="20" width="1" height="1"/>
</g>
<g>
	<rect x="19" y="26" width="1" height="1"/>
</g>
<g>
	<rect x="23" y="17" width="1" height="1"/>
</g>
<g>
	<rect x="23" y="20" width="1" height="1"/>
</g>
<g>
	<rect x="23" y="23" width="1" height="1"/>
</g>
<g>
	<path class="st0" d="M17.5,7.7H8H7v1v1v1h1H16V15l-0.4-0.4c-0.3-0.3-0.7-0.4-1.1-0.4c-0.4,0-0.8,0.2-1.1,0.4
		c-0.3,0.3-0.4,0.7-0.4,1.1c0,0.4,0.2,0.8,0.4,1.1l2.8,2.8l0.2,0.2c0.1,0.1,0.3,0.2,0.5,0.3c0.2,0.1,0.4,0.1,0.6,0.1
		c0.4,0,0.8-0.2,1.1-0.4l2.9-2.9c0.3-0.3,0.4-0.7,0.4-1.1c0-0.4-0.2-0.8-0.4-1.1c-0.3-0.3-0.7-0.4-1.1-0.4c-0.4,0-0.8,0.2-1.1,0.4
		L19,15V9.2C19,8.4,18.4,7.7,17.5,7.7L17.5,7.7z"/>
	<g>
		<path d="M20.5,15.2c-0.1,0-0.3,0-0.4,0.1L18,17.4V9.2c0-0.3-0.2-0.5-0.5-0.5H8v1H17v7.7l-2.1-2.1c-0.1-0.1-0.2-0.1-0.4-0.1
			s-0.3,0-0.4,0.1c-0.2,0.2-0.2,0.5,0,0.7l2.8,2.8l0.1,0.1c0.1,0.1,0.1,0.1,0.2,0.1c0.1,0,0.1,0.1,0.2,0.1c0.1,0,0.3,0,0.4-0.1
			l2.9-2.9c0.2-0.2,0.2-0.5,0-0.7C20.8,15.2,20.6,15.2,20.5,15.2z"/>
	</g>
</g>
</svg>
