<?xml version="1.0" encoding="utf-8"?>
<!-- Generator: Adobe Illustrator 18.0.0, SVG Export Plug-In . SVG Version: 6.00 Build 0)  -->
<!DOCTYPE svg PUBLIC "-//W3C//DTD SVG 1.1//EN" "http://www.w3.org/Graphics/SVG/1.1/DTD/svg11.dtd">
<svg version="1.1" id="Layer_1" xmlns="http://www.w3.org/2000/svg" xmlns:xlink="http://www.w3.org/1999/xlink" x="0px" y="0px"
	 width="35px" height="35px" viewBox="0 0 35 35" enable-background="new 0 0 35 35" xml:space="preserve">
<g>
	<g>
		<path fill="none" stroke="#231F20" stroke-miterlimit="10" d="M16.3,18.301"/>
	</g>
</g>
<g>
	<g>
		<path fill="none" stroke="#231F20" stroke-miterlimit="10" d="M16.368,27.698"/>
	</g>
</g>
<g>
	<g>
		<path fill="#231F20" d="M16,30c-2.625,0-4.039-1-4.501-2H9v-1h2.75c0.171,0,0.33,0.088,0.422,0.232C12.218,27.302,13.354,29,16,29
			V30z"/>
	</g>
</g>
<g>
	<g>
		<path fill="#231F20" d="M17.5,9.5C17.224,9.5,17,9.277,17,9V5c0-0.276,0.224-0.5,0.5-0.5S18,4.724,18,5v4
			C18,9.277,17.776,9.5,17.5,9.5z"/>
	</g>
</g>
<g>
	<g>
		<path fill="#231F20" d="M17.5,28.5c-0.276,0-0.5-0.224-0.5-0.5V15c0-0.276,0.224-0.5,0.5-0.5S18,14.724,18,15v13
			C18,28.277,17.776,28.5,17.5,28.5z"/>
	</g>
</g>
<g>
	<g>
		<path fill="#231F20" d="M19,30.057v-1c2.638,0,3.779-1.749,3.827-1.823C22.918,27.09,23.079,27,23.25,27H26v1h-2.495
			C23.042,29,21.625,30.057,19,30.057z"/>
	</g>
</g>
<g>
	<g>
		<path fill="#231F20" d="M11.75,28.004c-0.247,0-0.462-0.182-0.499-0.433l-1.159-8.128c-0.026-0.188,0.054-0.374,0.208-0.483
			l6.909-4.872c0.229-0.161,0.542-0.106,0.702,0.121c0.161,0.228,0.106,0.542-0.121,0.702l-6.657,4.694l1.115,7.823
			c0.039,0.276-0.152,0.531-0.428,0.57C11.797,28.003,11.773,28.004,11.75,28.004z"/>
	</g>
</g>
<g>
	<g>
		<path fill="#231F20" d="M23.25,28.004c-0.026,0-0.052-0.002-0.078-0.006c-0.275-0.043-0.463-0.301-0.42-0.576l1.202-7.693
			l-6.747-4.819c-0.227-0.162-0.279-0.477-0.117-0.703c0.162-0.225,0.477-0.279,0.703-0.117l7,5c0.155,0.111,0.234,0.3,0.205,0.488
			l-1.25,8C23.709,27.827,23.495,28.004,23.25,28.004z"/>
	</g>
</g>
<g>
	<g>
		<path fill="#231F20" d="M22.5,18.5c-0.276,0-0.5-0.224-0.5-0.5v-6.752C20.994,10.538,19.101,10,17.543,10
			c-1.636,0-3.565,0.536-4.543,1.243V18c0,0.276-0.224,0.5-0.5,0.5S12,18.277,12,18v-7.23l0.175-0.15
			C13.273,9.682,15.531,9,17.543,9c1.89,0,4.157,0.694,5.275,1.614L23,10.765V18C23,18.277,22.776,18.5,22.5,18.5z"/>
	</g>
</g>
<g>
	<g>
		<polygon points="20,14 20,12 15,12 15,14 16,14 16,13 19,13 19,14 		"/>
	</g>
</g>
</svg>
