<?xml version="1.0" encoding="utf-8"?>
<!-- Generator: Adobe Illustrator 24.1.3, SVG Export Plug-In . SVG Version: 6.00 Build 0)  -->
<svg version="1.1" id="Layer_1" xmlns="http://www.w3.org/2000/svg" xmlns:xlink="http://www.w3.org/1999/xlink" x="0px" y="0px"
	 width="35px" height="35px" viewBox="0 0 35 35" style="enable-background:new 0 0 35 35;" xml:space="preserve">
<g>
	<path d="M11.4,9.5c0.6,0,1.2,0.3,1.5,0.8c0.2,0.3,0.5,0.4,0.8,0.4h7.2l0.5,0.6l-0.5,0.6h-7.2c-0.3,0-0.6,0.2-0.8,0.4
		c-0.3,0.5-0.9,0.8-1.5,0.8c-1,0-1.8-0.8-1.8-1.8S10.4,9.5,11.4,9.5 M11.4,8.5c-1.6,0-2.8,1.3-2.8,2.8s1.3,2.8,2.8,2.8
		c1,0,1.8-0.5,2.3-1.2h7.5c0.1,0,0.1,0,0.2-0.1l1.1-1.3c0.1-0.1,0.1-0.2,0-0.3l-1.1-1.3c0-0.1-0.1-0.1-0.2-0.1h-7.5
		C13.2,9,12.3,8.5,11.4,8.5L11.4,8.5z"/>
	<path d="M11.4,15.7c0.6,0,1.2,0.3,1.5,0.8c0.2,0.3,0.5,0.4,0.8,0.4h9l0.5,0.6l-0.5,0.6h-9c-0.3,0-0.6,0.2-0.8,0.4
		c-0.3,0.5-0.9,0.8-1.5,0.8c-1,0-1.8-0.8-1.8-1.8S10.4,15.7,11.4,15.7 M11.4,14.7c-1.6,0-2.8,1.3-2.8,2.8s1.3,2.8,2.8,2.8
		c1,0,1.8-0.5,2.3-1.2h9.4c0.1,0,0.1,0,0.2-0.1l1.1-1.3c0.1-0.1,0.1-0.2,0-0.3L23.3,16c0-0.1-0.1-0.1-0.2-0.1h-9.4
		C13.2,15.2,12.3,14.7,11.4,14.7L11.4,14.7z"/>
	<path d="M11.4,21.8c0.6,0,1.2,0.3,1.5,0.8c0.2,0.3,0.5,0.4,0.8,0.4h11.2l0.5,0.6l-0.5,0.6H13.7c-0.3,0-0.6,0.2-0.8,0.4
		c-0.3,0.5-0.9,0.8-1.5,0.8c-1,0-1.8-0.8-1.8-1.8S10.4,21.8,11.4,21.8 M11.4,20.8c-1.6,0-2.8,1.3-2.8,2.8s1.3,2.8,2.8,2.8
		c1,0,1.8-0.5,2.3-1.2h11.5c0.1,0,0.1,0,0.2-0.1l1.1-1.3c0.1-0.1,0.1-0.2,0-0.3l-1.1-1.3c0-0.1-0.1-0.1-0.2-0.1H13.7
		C13.2,21.3,12.3,20.8,11.4,20.8L11.4,20.8z"/>
</g>
</svg>
