<?xml version="1.0" encoding="utf-8"?>
<!-- Generator: Adobe Illustrator 24.0.1, SVG Export Plug-In . SVG Version: 6.00 Build 0)  -->
<svg version="1.1" id="Layer_1" xmlns="http://www.w3.org/2000/svg" xmlns:xlink="http://www.w3.org/1999/xlink" x="0px" y="0px"
	 width="35px" height="35px" viewBox="0 0 35 35" style="enable-background:new 0 0 35 35;" xml:space="preserve">
<g>
	<path d="M18.2,15.9c-0.2,0.2-0.2,0.7,0,1c1.1,1.1,1.1,2.9,0,3.9l-5.7,5.7c-1.1,1.1-2.9,1.1-3.9,0l-0.9-0.9c-1.1-1.1-1.1-2.9,0-3.9
		l5.7-5.7c0.2-0.2,0.2-0.7,0-1c-0.2-0.2-0.7-0.2-1,0l-5.8,5.8c-0.8,0.8-1.2,1.8-1.2,3c0,1.1,0.4,2.2,1.2,3l0.9,0.8
		c0.8,0.8,1.8,1.2,3,1.2s2.1-0.4,3-1.2l5.7-5.7c1.6-1.6,1.6-4.2,0-5.8C18.9,15.7,18.5,15.7,18.2,15.9z"/>
	<path d="M28.3,8.4l-0.9-0.9c-1.6-1.6-4.2-1.6-5.8,0l-5.7,5.7c-1.6,1.6-1.6,4.2,0,5.8c0.2,0.2,0.7,0.2,1,0s0.2-0.7,0-1
		c-1.1-1.1-1.1-2.9,0-3.9l5.7-5.7c1.1-1.1,2.9-1.1,3.9,0l0.9,0.9c1.1,1.1,1.1,2.9,0,3.9l-5.7,5.7c-0.2,0.2-0.2,0.7,0,1
		c0.2,0.2,0.3,0.2,0.5,0.2s0.3-0.1,0.5-0.2l5.7-5.7c0.8-0.8,1.2-1.8,1.2-3S29.1,9.2,28.3,8.4z"/>
</g>
</svg>
