<?xml version="1.0" encoding="utf-8"?>
<!-- Generator: Adobe Illustrator 23.0.6, SVG Export Plug-In . SVG Version: 6.00 Build 0)  -->
<svg version="1.1" id="Layer_1" xmlns="http://www.w3.org/2000/svg" xmlns:xlink="http://www.w3.org/1999/xlink" x="0px" y="0px"
	 width="35px" height="35px" viewBox="0 0 35 35" style="enable-background:new 0 0 35 35;" xml:space="preserve">
<path d="M15.3,17.4l7-7c0.2-0.2,0.5-0.2,0.7,0c0.1,0.2,0.1,0.6,0.1,0.7l-7.2,7.3L15.3,17.4z M12.4,21.8l-0.5-1l-1.5,1.5l-2.5-4.9
	c-0.2-0.5-0.8-0.7-1.3-0.4c-0.5,0.2-0.7,0.8-0.4,1.3l3.3,6.4l1.4-1.4v0L12.4,21.8z M28.9,11.2L15.4,24.7l0,0l0,0l-3.3-6.4
	c-0.3-0.5-0.1-1.1,0.4-1.3c0.5-0.3,1.1-0.1,1.3,0.4l2.5,4.9l11.8-11.8c0.2-0.2,0.5-0.2,0.7,0C28.9,10.7,28.9,11.1,28.9,11.2z"/>
</svg>
