<?xml version="1.0" encoding="utf-8"?>
<!-- Generator: Adobe Illustrator 22.1.0, SVG Export Plug-In . SVG Version: 6.00 Build 0)  -->
<svg version="1.1" id="Layer_1" xmlns="http://www.w3.org/2000/svg" xmlns:xlink="http://www.w3.org/1999/xlink" x="0px" y="0px"
	 viewBox="0 0 35 35" style="enable-background:new 0 0 35 35;" xml:space="preserve">
<path d="M21.6,25h-1.1c0,0.1,0,0.2,0,0.2l0.9,1.8h-7.9l0.9-1.8c0-0.1,0-0.1,0-0.2h-1.1l-1.9,3.8c-0.1,0.2,0,0.5,0.2,0.7
	c0.1,0,0.1,0.1,0.2,0.1c0.2,0,0.4-0.1,0.4-0.3l0.6-1.2h8.9l0.6,1.2c0.1,0.2,0.3,0.3,0.4,0.3c0.1,0,0.2,0,0.2-0.1
	c0.2-0.1,0.3-0.4,0.2-0.7L21.6,25z"/>
<path d="M21.6,20h-1.1c0,0.1,0,0.2,0,0.2l0.9,1.8h-7.9l0.9-1.8c0-0.1,0-0.1,0-0.2h-1.1l-1.9,3.8c-0.1,0.2,0,0.5,0.2,0.7
	c0.1,0,0.1,0.1,0.2,0.1c0.2,0,0.4-0.1,0.4-0.3l0.6-1.2h8.9l0.6,1.2c0.1,0.2,0.3,0.3,0.4,0.3c0.1,0,0.2,0,0.2-0.1
	c0.2-0.1,0.3-0.4,0.2-0.7L21.6,20z"/>
<path d="M21.6,15h-1.1c0,0.1,0,0.2,0,0.2l0.9,1.8h-7.9l0.9-1.8c0-0.1,0-0.1,0-0.2h-1.1l-1.9,3.8c-0.1,0.2,0,0.5,0.2,0.7
	c0.1,0,0.1,0.1,0.2,0.1c0.2,0,0.4-0.1,0.4-0.3l0.6-1.2h8.9l0.6,1.2c0.1,0.2,0.3,0.3,0.4,0.3c0.1,0,0.2,0,0.2-0.1
	c0.2-0.1,0.3-0.4,0.2-0.7L21.6,15z"/>
</svg>
