<?xml version="1.0" encoding="utf-8"?>
<!-- Generator: Adobe Illustrator 18.0.0, SVG Export Plug-In . SVG Version: 6.00 Build 0)  -->
<!DOCTYPE svg PUBLIC "-//W3C//DTD SVG 1.1//EN" "http://www.w3.org/Graphics/SVG/1.1/DTD/svg11.dtd">
<svg version="1.1" id="Layer_1" xmlns="http://www.w3.org/2000/svg" xmlns:xlink="http://www.w3.org/1999/xlink" x="0px" y="0px"
	 width="35px" height="35px" viewBox="0 0 35 35" enable-background="new 0 0 35 35" xml:space="preserve">
<path fill-rule="evenodd" clip-rule="evenodd" d="M11.1,19.9c-0.6,0-1,0.4-1,1s0.4,1,1,1c0.6,0,1-0.4,1-1S11.7,19.9,11.1,19.9z
	 M23.8,19.9c-0.6,0-1,0.4-1,1s0.4,1,1,1c0.6,0,1-0.4,1-1S24.4,19.9,23.8,19.9z M15,22h5v-1h-5V22z M14,20h7v-1h-7V20z M25,17l-1-5
	c-0.1-0.5-0.6-1-1.2-1H21V9h-7v2h-1.8c-0.5,0-1.1,0.4-1.2,1l-1,5c-1.1,0-2,0.9-2,2v4c0,1.1,0.9,2,2,2h0v1.2c0,0.4,0.3,0.8,0.8,0.8
	h0.5c0.4,0,0.8-0.3,0.8-0.8V25h11v1.2c0,0.4,0.3,0.8,0.8,0.8h0.5c0.4,0,0.8-0.3,0.8-0.8V25h0c1.1,0,2-0.9,2-2v-4
	C27,17.9,26.1,17,25,17z M15,10h5v1h-5V10z M12,12h11l1,5H11L12,12z M26,23c0,0.6-0.4,1-1,1H10c-0.6,0-1-0.4-1-1v-4c0-0.6,0.4-1,1-1
	h15c0.6,0,1,0.4,1,1V23z"/>
</svg>
