<?xml version="1.0" encoding="utf-8"?>
<!-- Generator: Adobe Illustrator 22.1.0, SVG Export Plug-In . SVG Version: 6.00 Build 0)  -->
<svg version="1.1" id="Layer_1" xmlns="http://www.w3.org/2000/svg" xmlns:xlink="http://www.w3.org/1999/xlink" x="0px" y="0px"
	 viewBox="0 0 35 35" style="enable-background:new 0 0 35 35;" xml:space="preserve">
<path d="M17.6,28.8l-0.4-0.5c-0.3-0.3-7.1-8.6-7.1-14.3c0-4.1,3.4-7.5,7.5-7.5s7.5,3.4,7.5,7.5c0,5.7-6.8,14-7.1,14.3L17.6,28.8z
	 M17.6,7.5c-3.6,0-6.5,2.9-6.5,6.5c0,4.6,5.1,11.4,6.5,13.2c1.4-1.8,6.5-8.6,6.5-13.2C24.1,10.4,21.2,7.5,17.6,7.5z"/>
<g>
	<path d="M16,15.7v3.6h-1v-8.6h2.3c1.1,0,1.8,0.2,2.3,0.6s0.8,1,0.8,1.8c0,1.1-0.6,1.9-1.7,2.3l2.3,3.8h-1.2l-2.1-3.6H16z M16,14.9
		h1.4c0.7,0,1.2-0.1,1.5-0.4s0.5-0.7,0.5-1.3c0-0.6-0.2-1-0.5-1.2s-0.9-0.4-1.6-0.4H16V14.9z"/>
</g>
</svg>
