<?xml version="1.0" encoding="utf-8"?>
<!-- Generator: Adobe Illustrator 24.0.0, SVG Export Plug-In . SVG Version: 6.00 Build 0)  -->
<svg version="1.1" id="Layer_1" xmlns="http://www.w3.org/2000/svg" xmlns:xlink="http://www.w3.org/1999/xlink" x="0px" y="0px"
	 width="35px" height="35px" viewBox="0 0 35 35" style="enable-background:new 0 0 35 35;" xml:space="preserve">
<path d="M11.4,8.2l-0.6,0.2l0.5,0.5l2.8,2.9l-0.6,1.7l-1.7,0.6L9,11.2l-0.5-0.5l-0.2,0.6c-0.2,0.5-0.2,1-0.2,1.6c0,2.8,2.2,5,5,5
	c0.6,0,1.2-0.2,1.7-0.3l8.8,8.8c0.8,0.8,2.1,0.8,2.8,0c0.8-0.8,0.8-2.1,0-2.8l-8.8-8.9c0.2-0.6,0.3-1.1,0.3-1.7c0-2.8-2.2-5-5-5
	C12.4,8,11.9,8,11.4,8.2z M17.1,12.9c0,0.6-0.2,1.2-0.4,1.7l-0.1,0.2l0.2,0.2l8.9,8.9c0.5,0.5,0.5,1.2,0,1.7s-1.2,0.5-1.7,0l-9-9
	l-0.2-0.2l-0.2,0.1c-0.6,0.2-1.1,0.4-1.7,0.4c-2.3,0-4.1-1.8-4.1-4.1c0-0.2,0.1-0.4,0.1-0.6l2.5,2.5l0.2,0.2l0.2-0.1l2.1-0.8l0.1,0
	l0.1-0.2l0.8-2.1l0.1-0.2l-0.2-0.2l-2.4-2.5c0.2,0,0.4-0.1,0.6-0.1C15.3,8.8,17.1,10.6,17.1,12.9z"/>
</svg>
